<svg xmlns="http://www.w3.org/2000/svg" xmlns:xlink="http://www.w3.org/1999/xlink" width="320" height="334" viewBox="0 0 320 334" preserveAspectRatio="xMinYMin meet">
    <style type="text/css">text {font-family: Helvetica, Verdana, Sans-Serif;}</style>

    <!-- Generated by Miró version 3.3.16 using Klee version 2.0.96.
         Copyright (c) Stochastic Solutions Limited 2008-2025
         :FILE:: [[session003-graph044.svg]] -->

    <g transform="translate(0,0)">
	<g transform="scale(1.0000, 1.0000)">

	    <!-- X Axis Line -->

	    <line x1="59" y1="260" x2="261" y2="260" stroke="#000000" stroke-width="2"/>

	    <!-- Y Axis Line -->

	    <line x1="60" y1="261" x2="60" y2="59" stroke="#000000" stroke-width="2"/>

	    <!-- The scatter data -->

	    <line x1="70" y1="240.52" x2="70" y2="249.63" stroke="#808080" stroke-width="1"/>
	    <line x1="66" y1="240.52" x2="74" y2="240.52" stroke="#808080" stroke-width="1"/>
	    <line x1="66" y1="249.63" x2="74" y2="249.63" stroke="#808080" stroke-width="1"/>
	    <line x1="90" y1="228.44" x2="90" y2="235.91" stroke="#808080" stroke-width="1"/>
	    <line x1="86" y1="228.44" x2="94" y2="228.44" stroke="#808080" stroke-width="1"/>
	    <line x1="86" y1="235.91" x2="94" y2="235.91" stroke="#808080" stroke-width="1"/>
	    <line x1="110" y1="204.67" x2="110" y2="211.25" stroke="#808080" stroke-width="1"/>
	    <line x1="106" y1="204.67" x2="114" y2="204.67" stroke="#808080" stroke-width="1"/>
	    <line x1="106" y1="211.25" x2="114" y2="211.25" stroke="#808080" stroke-width="1"/>
	    <line x1="130" y1="182.54" x2="130" y2="189.42" stroke="#808080" stroke-width="1"/>
	    <line x1="126" y1="182.54" x2="134" y2="182.54" stroke="#808080" stroke-width="1"/>
	    <line x1="126" y1="189.42" x2="134" y2="189.42" stroke="#808080" stroke-width="1"/>
	    <line x1="150" y1="167.5" x2="150" y2="174.31" stroke="#808080" stroke-width="1"/>
	    <line x1="146" y1="167.5" x2="154" y2="167.5" stroke="#808080" stroke-width="1"/>
	    <line x1="146" y1="174.31" x2="154" y2="174.31" stroke="#808080" stroke-width="1"/>
	    <line x1="170" y1="146.08" x2="170" y2="153.61" stroke="#808080" stroke-width="1"/>
	    <line x1="166" y1="146.08" x2="174" y2="146.08" stroke="#808080" stroke-width="1"/>
	    <line x1="166" y1="153.61" x2="174" y2="153.61" stroke="#808080" stroke-width="1"/>
	    <line x1="190" y1="122.94" x2="190" y2="130.86" stroke="#808080" stroke-width="1"/>
	    <line x1="186" y1="122.94" x2="194" y2="122.94" stroke="#808080" stroke-width="1"/>
	    <line x1="186" y1="130.86" x2="194" y2="130.86" stroke="#808080" stroke-width="1"/>
	    <line x1="210" y1="105.23" x2="210" y2="113.79" stroke="#808080" stroke-width="1"/>
	    <line x1="206" y1="105.23" x2="214" y2="105.23" stroke="#808080" stroke-width="1"/>
	    <line x1="206" y1="113.79" x2="214" y2="113.79" stroke="#808080" stroke-width="1"/>
	    <line x1="230" y1="84.97" x2="230" y2="92.33" stroke="#808080" stroke-width="1"/>
	    <line x1="226" y1="84.97" x2="234" y2="84.97" stroke="#808080" stroke-width="1"/>
	    <line x1="226" y1="92.33" x2="234" y2="92.33" stroke="#808080" stroke-width="1"/>
	    <line x1="250" y1="68.08" x2="250" y2="76.54" stroke="#808080" stroke-width="1"/>
	    <line x1="246" y1="68.08" x2="254" y2="68.08" stroke="#808080" stroke-width="1"/>
	    <line x1="246" y1="76.54" x2="254" y2="76.54" stroke="#808080" stroke-width="1"/>
	    <circle cx="70" cy="245.07" r="2" style="fill:#010101"/>
	    <circle cx="90" cy="232.17" r="2" style="fill:#010101"/>
	    <circle cx="110" cy="207.96" r="2" style="fill:#010101"/>
	    <circle cx="130" cy="185.98" r="2" style="fill:#010101"/>
	    <circle cx="150" cy="170.9" r="2" style="fill:#010101"/>
	    <circle cx="170" cy="149.84" r="2" style="fill:#010101"/>
	    <circle cx="190" cy="126.9" r="2" style="fill:#010101"/>
	    <circle cx="210" cy="109.51" r="2" style="fill:#010101"/>
	    <circle cx="230" cy="88.65" r="2" style="fill:#010101"/>
	    <circle cx="250" cy="72.31" r="2" style="fill:#010101"/>
	    <text x="160" y="45" font-size="15" text-anchor="middle" style="font-weight:bold">Well Calibrated</text>

	    <!-- Y Axis -->

	    <line x1="55" y1="260" x2="60" y2="260" stroke="#000000" stroke-width="2"/>
	    <line x1="60" y1="260" x2="260" y2="260" stroke="#404040" stroke-width="0.25"/>
	    <text x="52" y="263.33" font-size="10" text-anchor="end">0.0</text>
	    <line x1="55" y1="240" x2="60" y2="240" stroke="#000000" stroke-width="2"/>
	    <line x1="60" y1="240" x2="260" y2="240" stroke="#404040" stroke-width="0.25"/>
	    <text x="52" y="243.33" font-size="10" text-anchor="end">0.1</text>
	    <line x1="55" y1="220" x2="60" y2="220" stroke="#000000" stroke-width="2"/>
	    <line x1="60" y1="220" x2="260" y2="220" stroke="#404040" stroke-width="0.25"/>
	    <text x="52" y="223.33" font-size="10" text-anchor="end">0.2</text>
	    <line x1="55" y1="200" x2="60" y2="200" stroke="#000000" stroke-width="2"/>
	    <line x1="60" y1="200" x2="260" y2="200" stroke="#404040" stroke-width="0.25"/>
	    <text x="52" y="203.33" font-size="10" text-anchor="end">0.3</text>
	    <line x1="55" y1="180" x2="60" y2="180" stroke="#000000" stroke-width="2"/>
	    <line x1="60" y1="180" x2="260" y2="180" stroke="#404040" stroke-width="0.25"/>
	    <text x="52" y="183.33" font-size="10" text-anchor="end">0.4</text>
	    <line x1="55" y1="160" x2="60" y2="160" stroke="#000000" stroke-width="2"/>
	    <line x1="60" y1="160" x2="260" y2="160" stroke="#404040" stroke-width="0.25"/>
	    <text x="52" y="163.33" font-size="10" text-anchor="end">0.5</text>
	    <line x1="55" y1="140" x2="60" y2="140" stroke="#000000" stroke-width="2"/>
	    <line x1="60" y1="140" x2="260" y2="140" stroke="#404040" stroke-width="0.25"/>
	    <text x="52" y="143.33" font-size="10" text-anchor="end">0.6</text>
	    <line x1="55" y1="120" x2="60" y2="120" stroke="#000000" stroke-width="2"/>
	    <line x1="60" y1="120" x2="260" y2="120" stroke="#404040" stroke-width="0.25"/>
	    <text x="52" y="123.33" font-size="10" text-anchor="end">0.7</text>
	    <line x1="55" y1="100" x2="60" y2="100" stroke="#000000" stroke-width="2"/>
	    <line x1="60" y1="100" x2="260" y2="100" stroke="#404040" stroke-width="0.25"/>
	    <text x="52" y="103.33" font-size="10" text-anchor="end">0.8</text>
	    <line x1="55" y1="80" x2="60" y2="80" stroke="#000000" stroke-width="2"/>
	    <line x1="60" y1="80" x2="260" y2="80" stroke="#404040" stroke-width="0.25"/>
	    <text x="52" y="83.33" font-size="10" text-anchor="end">0.9</text>
	    <line x1="55" y1="60" x2="60" y2="60" stroke="#000000" stroke-width="2"/>
	    <line x1="60" y1="60" x2="260" y2="60" stroke="#404040" stroke-width="0.25"/>
	    <text x="52" y="63.33" font-size="10" text-anchor="end">1.0</text>
	    <line x1="60" y1="260" x2="60" y2="264" stroke="#000000" stroke-width="2"/>
	    <text x="60" y="274" font-size="10" text-anchor="middle"/>
	    <line x1="60" y1="260" x2="60" y2="60" stroke="#404040" stroke-width="0.25"/>
	    <line x1="80" y1="260" x2="80" y2="264" stroke="#000000" stroke-width="2"/>
	    <text x="80" y="274" font-size="10" text-anchor="middle">0.1</text>
	    <line x1="80" y1="260" x2="80" y2="60" stroke="#404040" stroke-width="0.25"/>
	    <line x1="100" y1="260" x2="100" y2="264" stroke="#000000" stroke-width="2"/>
	    <text x="100" y="274" font-size="10" text-anchor="middle">0.2</text>
	    <line x1="100" y1="260" x2="100" y2="60" stroke="#404040" stroke-width="0.25"/>
	    <line x1="120" y1="260" x2="120" y2="264" stroke="#000000" stroke-width="2"/>
	    <text x="120" y="274" font-size="10" text-anchor="middle">0.3</text>
	    <line x1="120" y1="260" x2="120" y2="60" stroke="#404040" stroke-width="0.25"/>
	    <line x1="140" y1="260" x2="140" y2="264" stroke="#000000" stroke-width="2"/>
	    <text x="140" y="274" font-size="10" text-anchor="middle">0.4</text>
	    <line x1="140" y1="260" x2="140" y2="60" stroke="#404040" stroke-width="0.25"/>
	    <line x1="160" y1="260" x2="160" y2="264" stroke="#000000" stroke-width="2"/>
	    <text x="160" y="274" font-size="10" text-anchor="middle">0.5</text>
	    <line x1="160" y1="260" x2="160" y2="60" stroke="#404040" stroke-width="0.25"/>
	    <line x1="180" y1="260" x2="180" y2="264" stroke="#000000" stroke-width="2"/>
	    <text x="180" y="274" font-size="10" text-anchor="middle">0.6</text>
	    <line x1="180" y1="260" x2="180" y2="60" stroke="#404040" stroke-width="0.25"/>
	    <line x1="200" y1="260" x2="200" y2="264" stroke="#000000" stroke-width="2"/>
	    <text x="200" y="274" font-size="10" text-anchor="middle">0.7</text>
	    <line x1="200" y1="260" x2="200" y2="60" stroke="#404040" stroke-width="0.25"/>
	    <line x1="220" y1="260" x2="220" y2="264" stroke="#000000" stroke-width="2"/>
	    <text x="220" y="274" font-size="10" text-anchor="middle">0.8</text>
	    <line x1="220" y1="260" x2="220" y2="60" stroke="#404040" stroke-width="0.25"/>
	    <line x1="240" y1="260" x2="240" y2="264" stroke="#000000" stroke-width="2"/>
	    <text x="240" y="274" font-size="10" text-anchor="middle">0.9</text>
	    <line x1="240" y1="260" x2="240" y2="60" stroke="#404040" stroke-width="0.25"/>
	    <line x1="260" y1="260" x2="260" y2="60" stroke="#404040" stroke-width="0.25"/>
	    <line x1="60" y1="261" x2="60" y2="59" stroke="#000000" stroke-width="2"/>
	    <text x="160" y="294" font-size="10" text-anchor="middle">Predicted</text>
	    <g transform="translate(23,194) rotate(-90)">
		<text x="0" y="0" font-size="10">Mean Outcome</text>
	    </g>
	    <line x1="60" y1="260" x2="260" y2="60" stroke="black" stroke-width="0.5" opacity="1" stroke-dasharray="1,1"/>
	    <text x="260" y="274" font-size="10" text-anchor="middle">1.0</text>
	    <text x="60" y="274" font-size="10" text-anchor="middle">0.0</text>
	    <line x1="260" y1="260" x2="260" y2="264" stroke="black" stroke-width="2"/>
	</g>
    </g>
</svg>
